<svg width="64" height="64" viewBox="0 0 64 64" fill="none" xmlns="http://www.w3.org/2000/svg">
  <defs>
    <linearGradient id="bg" x1="8" y1="8" x2="56" y2="56" gradientUnits="userSpaceOnUse">
      <stop stop-color="#7C3AED"/>
      <stop offset="1" stop-color="#2563EB"/>
    </linearGradient>
    <linearGradient id="shine" x1="18" y1="16" x2="46" y2="46" gradientUnits="userSpaceOnUse">
      <stop stop-color="#F8FAFC"/>
      <stop offset="1" stop-color="#C4B5FD"/>
    </linearGradient>
  </defs>
  <rect x="4" y="4" width="56" height="56" rx="16" fill="#070B1A"/>
  <rect x="6" y="6" width="52" height="52" rx="14" fill="url(#bg)"/>
  <path d="M20 45V19H28.8C34.4544 19 38 21.8892 38 26.4C38 30.9108 34.4544 33.8 28.8 33.8H25.6V45H20ZM25.6 29.6H28.2C31.3496 29.6 32.8 28.3852 32.8 26.4C32.8 24.3648 31.3496 23.2 28.2 23.2H25.6V29.6Z" fill="url(#shine)"/>
  <path d="M33.5 45L42.4 31.5L34.3 19H40.1L45.5 27.6L50.8 19H56.4L48.3 31.4L57.2 45H51.3L45.3 35.4L39.2 45H33.5Z" fill="#F8FAFC"/>
</svg>
